HIERARCHY
ROOT Hips
{
	OFFSET 0.000000 83.214638 0.000000
	CHANNELS 6 Xposition Yposition Zposition Xrotation Yrotation Zrotation
	JOINT Pelvis
	{
		OFFSET 0.000000 0.000000 0.000000
		CHANNELS 3 Xrotation Yrotation Zrotation
		JOINT LeftUpLeg
		{
			OFFSET 8.479700 -4.795502 -0.379100
			CHANNELS 3 Xrotation Yrotation Zrotation
			JOINT LeftLeg
			{
				OFFSET 0.024144 -32.555107 0.112900
				CHANNELS 3 Xrotation Yrotation Zrotation
				JOINT LeftFoot
				{
					OFFSET -0.024144 -32.638630 -3.012600
					CHANNELS 3 Xrotation Yrotation Zrotation
					JOINT LeftToeBase
					{
						OFFSET 0.970200 -13.225400 11.864200
						CHANNELS 3 Xrotation Yrotation Zrotation
						End Site
						{
							OFFSET 0.000000 12.319262 0.000000
						}
					}
					JOINT LFootTongue
					{
						OFFSET 1.142400 -1.059800 6.665200
						CHANNELS 3 Xrotation Yrotation Zrotation
						End Site
						{
							OFFSET 0.000000 12.319262 0.000000
						}
					}
				}
				JOINT LeftPantLeg
				{
					OFFSET 0.918482 -16.533964 -2.284700
					CHANNELS 3 Xrotation Yrotation Zrotation
					End Site
					{
						OFFSET 0.350399 24.744368 0.000000
					}
				}
			}
		}
		JOINT RightUpLeg
		{
			OFFSET -8.479700 -4.795502 -0.379100
			CHANNELS 3 Xrotation Yrotation Zrotation
			JOINT RightLeg
			{
				OFFSET -0.023144 -32.555092 0.112900
				CHANNELS 3 Xrotation Yrotation Zrotation
				JOINT RightFoot
				{
					OFFSET 0.023144 -32.638641 -3.012700
					CHANNELS 3 Xrotation Yrotation Zrotation
					JOINT RightToeBase
					{
						OFFSET -0.970200 -13.225400 11.864200
						CHANNELS 3 Xrotation Yrotation Zrotation
						End Site
						{
							OFFSET 0.000000 12.319244 0.000000
						}
					}
					JOINT RFootTongue
					{
						OFFSET -1.142200 -1.059800 6.665200
						CHANNELS 3 Xrotation Yrotation Zrotation
						End Site
						{
							OFFSET 0.000000 12.319243 0.000000
						}
					}
				}
				JOINT RightPantLeg
				{
					OFFSET -0.919482 -16.533978 -2.284800
					CHANNELS 3 Xrotation Yrotation Zrotation
					End Site
					{
						OFFSET -0.350400 24.744419 0.000000
					}
				}
			}
		}
	}
	JOINT Spine
	{
		OFFSET 0.000000 7.722000 1.166200
		CHANNELS 3 Xrotation Yrotation Zrotation
		JOINT Spine1
		{
			OFFSET 0.000000 12.024101 0.248800
			CHANNELS 3 Xrotation Yrotation Zrotation
			JOINT Spine2
			{
				OFFSET 0.000000 11.502998 -0.491200
				CHANNELS 3 Xrotation Yrotation Zrotation
				JOINT Neck
				{
					OFFSET 0.000000 18.430702 -3.123100
					CHANNELS 3 Xrotation Yrotation Zrotation
					JOINT Head
					{
						OFFSET 0.000000 9.051102 1.034000
						CHANNELS 3 Xrotation Yrotation Zrotation
						JOINT HairB
						{
							OFFSET 0.208400 24.786102 24.822300
							CHANNELS 3 Xrotation Yrotation Zrotation
							End Site
							{
								OFFSET 0.000000 32.263779 0.000000
							}
						}
						JOINT HairA
						{
							OFFSET -7.081100 24.428299 23.196600
							CHANNELS 3 Xrotation Yrotation Zrotation
							End Site
							{
								OFFSET 0.000000 32.263779 0.000000
							}
						}
						JOINT Hat
						{
							OFFSET 16.728800 15.048294 -15.439601
							CHANNELS 3 Xrotation Yrotation Zrotation
							End Site
							{
								OFFSET 0.000000 32.263779 0.000000
							}
						}
					}
				}
				JOINT LeftShoulder
				{
					OFFSET 6.197800 13.665199 -4.064700
					CHANNELS 3 Xrotation Yrotation Zrotation
					JOINT LeftArm
					{
						OFFSET 7.778100 -0.187103 -1.709300
						CHANNELS 3 Xrotation Yrotation Zrotation
						JOINT LeftForeArm
						{
							OFFSET 22.049376 0.000000 0.000000
							CHANNELS 3 Xrotation Yrotation Zrotation
							JOINT LeftHand
							{
								OFFSET 23.009392 0.000000 0.000000
								CHANNELS 3 Xrotation Yrotation Zrotation
								JOINT LeftHandThumb1
								{
									OFFSET 3.507191 -2.063065 3.133727
									CHANNELS 3 Xrotation Yrotation Zrotation
									JOINT LeftHandThumb2
									{
										OFFSET 3.101337 -1.790558 1.790558
										CHANNELS 3 Xrotation Yrotation Zrotation
										JOINT LeftHandThumb3
										{
											OFFSET 3.058640 -1.765907 1.765906
											CHANNELS 3 Xrotation Yrotation Zrotation
											End Site
											{
												OFFSET -0.415260 3.926476 -0.049563
											}
										}
									}
								}
								JOINT LeftHandIndex1
								{
									OFFSET 11.334419 -0.901459 3.706815
									CHANNELS 3 Xrotation Yrotation Zrotation
									JOINT LeftHandIndex2
									{
										OFFSET 3.283112 0.000000 0.000000
										CHANNELS 3 Xrotation Yrotation Zrotation
										JOINT LeftHandIndex3
										{
											OFFSET 3.323853 0.000000 0.000000
											CHANNELS 3 Xrotation Yrotation Zrotation
											End Site
											{
												OFFSET -1.135597 3.097809 0.402452
											}
										}
									}
								}
								JOINT LeftHandMiddle1
								{
									OFFSET 11.335861 0.000000 0.000000
									CHANNELS 3 Xrotation Yrotation Zrotation
									JOINT LeftHandMiddle2
									{
										OFFSET 3.410492 0.000000 0.000000
										CHANNELS 3 Xrotation Yrotation Zrotation
										JOINT LeftHandMiddle3
										{
											OFFSET 3.312172 0.000000 0.000000
											CHANNELS 3 Xrotation Yrotation Zrotation
											End Site
											{
												OFFSET -1.150200 3.080154 0.400270
											}
										}
									}
								}
								JOINT LeftHandRing1
								{
									OFFSET 11.514786 -0.013176 -3.003090
									CHANNELS 3 Xrotation Yrotation Zrotation
									JOINT LeftHandRing2
									{
										OFFSET 3.053307 0.000000 0.000000
										CHANNELS 3 Xrotation Yrotation Zrotation
										JOINT LeftHandRing3
										{
											OFFSET 3.295807 0.000000 0.000000
											CHANNELS 3 Xrotation Yrotation Zrotation
											End Site
											{
												OFFSET -1.281006 3.013344 0.375733
											}
										}
									}
								}
								JOINT LeftHandPinky1
								{
									OFFSET 10.518692 -0.960396 -5.730441
									CHANNELS 3 Xrotation Yrotation Zrotation
									JOINT LeftHandPinky2
									{
										OFFSET 2.861649 0.000000 0.000000
										CHANNELS 3 Xrotation Yrotation Zrotation
										JOINT LeftHandPinky3
										{
											OFFSET 2.863380 0.000000 0.000000
											CHANNELS 3 Xrotation Yrotation Zrotation
											End Site
											{
												OFFSET -0.843597 2.711159 0.369971
											}
										}
									}
								}
							}
							JOINT LSleeve
							{
								OFFSET 6.676277 -0.344902 -1.011730
								CHANNELS 3 Xrotation Yrotation Zrotation
								End Site
								{
									OFFSET 0.000000 14.885353 0.000000
								}
							}
						}
					}
				}
				JOINT RightShoulder
				{
					OFFSET -6.197800 13.665199 -4.064700
					CHANNELS 3 Xrotation Yrotation Zrotation
					JOINT RightArm
					{
						OFFSET -7.778100 -0.187103 -1.709300
						CHANNELS 3 Xrotation Yrotation Zrotation
						JOINT RightForeArm
						{
							OFFSET -22.049376 0.000000 0.000000
							CHANNELS 3 Xrotation Yrotation Zrotation
							JOINT RightHand
							{
								OFFSET -23.009392 0.000000 0.000000
								CHANNELS 3 Xrotation Yrotation Zrotation
								JOINT RightHandThumb1
								{
									OFFSET -3.507191 -2.063065 3.133727
									CHANNELS 3 Xrotation Yrotation Zrotation
									JOINT RightHandThumb2
									{
										OFFSET -3.101337 -1.790558 1.790558
										CHANNELS 3 Xrotation Yrotation Zrotation
										JOINT RightHandThumb3
										{
											OFFSET -3.058640 -1.765907 1.765906
											CHANNELS 3 Xrotation Yrotation Zrotation
											End Site
											{
												OFFSET 0.415260 3.926476 -0.049563
											}
										}
									}
								}
								JOINT RightHandIndex1
								{
									OFFSET -11.334419 -0.901459 3.706815
									CHANNELS 3 Xrotation Yrotation Zrotation
									JOINT RightHandIndex2
									{
										OFFSET -3.283112 0.000000 0.000000
										CHANNELS 3 Xrotation Yrotation Zrotation
										JOINT RightHandIndex3
										{
											OFFSET -3.323853 0.000000 0.000000
											CHANNELS 3 Xrotation Yrotation Zrotation
											End Site
											{
												OFFSET 1.135597 3.097809 0.402452
											}
										}
									}
								}
								JOINT RightHandMiddle1
								{
									OFFSET -11.335861 0.000000 0.000000
									CHANNELS 3 Xrotation Yrotation Zrotation
									JOINT RightHandMiddle2
									{
										OFFSET -3.410492 0.000000 0.000000
										CHANNELS 3 Xrotation Yrotation Zrotation
										JOINT RightHandMiddle3
										{
											OFFSET -3.312172 0.000000 0.000000
											CHANNELS 3 Xrotation Yrotation Zrotation
											End Site
											{
												OFFSET 1.150200 3.080154 0.400270
											}
										}
									}
								}
								JOINT RightHandRing1
								{
									OFFSET -11.514786 -0.013176 -3.003090
									CHANNELS 3 Xrotation Yrotation Zrotation
									JOINT RightHandRing2
									{
										OFFSET -3.053307 0.000000 0.000000
										CHANNELS 3 Xrotation Yrotation Zrotation
										JOINT RightHandRing3
										{
											OFFSET -3.295807 0.000000 0.000000
											CHANNELS 3 Xrotation Yrotation Zrotation
											End Site
											{
												OFFSET 1.281006 3.013344 0.375733
											}
										}
									}
								}
								JOINT RightHandPinky1
								{
									OFFSET -10.518692 -0.960396 -5.730441
									CHANNELS 3 Xrotation Yrotation Zrotation
									JOINT RightHandPinky2
									{
										OFFSET -2.861649 0.000000 0.000000
										CHANNELS 3 Xrotation Yrotation Zrotation
										JOINT RightHandPinky3
										{
											OFFSET -2.863380 0.000000 0.000000
											CHANNELS 3 Xrotation Yrotation Zrotation
											End Site
											{
												OFFSET 0.843597 2.711159 0.369971
											}
										}
									}
								}
							}
							JOINT RSleeve
							{
								OFFSET -6.676277 -0.344902 -1.011730
								CHANNELS 3 Xrotation Yrotation Zrotation
								End Site
								{
									OFFSET 0.000000 14.885353 0.000000
								}
							}
						}
					}
				}
				JOINT Backpack
				{
					OFFSET 0.000000 -2.471497 36.677502
					CHANNELS 3 Xrotation Yrotation Zrotation
					End Site
					{
						OFFSET 0.000000 20.427315 0.000000
					}
				}
				JOINT Hood
				{
					OFFSET 0.000000 18.754097 -10.431000
					CHANNELS 3 Xrotation Yrotation Zrotation
					JOINT Hood1
					{
						OFFSET 0.000000 -5.011002 -7.685901
						CHANNELS 3 Xrotation Yrotation Zrotation
						End Site
						{
							OFFSET 0.000000 9.175140 0.000000
						}
					}
				}
				JOINT LHoodieString
				{
					OFFSET 5.250500 16.397697 3.089900
					CHANNELS 3 Xrotation Yrotation Zrotation
					JOINT LHoodieString1
					{
						OFFSET 0.257700 -6.364304 3.694600
						CHANNELS 3 Xrotation Yrotation Zrotation
						JOINT LHoodieString2
						{
							OFFSET 0.000000 -9.643799 2.679100
							CHANNELS 3 Xrotation Yrotation Zrotation
							End Site
							{
								OFFSET 0.000000 10.009018 0.000000
							}
						}
					}
				}
				JOINT RHoodieString
				{
					OFFSET -5.250500 16.397697 3.089900
					CHANNELS 3 Xrotation Yrotation Zrotation
					JOINT RHoodieString1
					{
						OFFSET -0.257700 -6.364304 3.694600
						CHANNELS 3 Xrotation Yrotation Zrotation
						JOINT RHoodieString2
						{
							OFFSET 0.000000 -9.643799 2.679100
							CHANNELS 3 Xrotation Yrotation Zrotation
							End Site
							{
								OFFSET 0.000000 10.009018 0.000000
							}
						}
					}
				}
			}
			JOINT LBackpack_Strap
			{
				OFFSET 15.223200 -7.719803 -6.610900
				CHANNELS 3 Xrotation Yrotation Zrotation
				End Site
				{
					OFFSET 0.000000 16.040596 0.000000
				}
			}
			JOINT RBackpack_Strap
			{
				OFFSET -15.223000 -7.719803 -6.610900
				CHANNELS 3 Xrotation Yrotation Zrotation
				End Site
				{
					OFFSET 0.000000 16.040596 0.000000
				}
			}
		}
	}
	JOINT BoyFacialAnim_Joint
	{
		OFFSET 1.000000 -82.208099 -1.550900
		CHANNELS 3 Xrotation Yrotation Zrotation
		End Site
		{
			OFFSET 0.000000 30.012791 0.000000
		}
	}
}
MOTION
Frames: 4
Frame Time: 0.033333
-0.075644 74.951256 -0.114285 -11.492834 -32.276103 -3.533508 -0.000000 0.000002 0.000000 -30.695591 29.257027 15.453481 74.818029 -9.917768 2.941508 16.241350 4.433666 15.779815 0.000001 0.000001 -0.000001 0.000001 0.000001 -0.000000 0.000005 0.000000 -0.000000 -25.420899 -2.259716 7.097504 51.251527 -5.431503 -10.310996 -16.386280 -0.243721 1.241551 0.000000 0.000002 0.000000 0.000000 0.000002 0.000000 0.000001 0.000002 -0.000000 13.662433 -4.523299 6.466970 2.026186 -2.342333 0.827093 2.015420 -2.337403 0.867629 13.152123 13.393341 -6.449614 16.976319 9.989553 4.216575 -0.000000 0.000001 -0.000000 -0.000000 0.000001 -0.000000 -0.000000 0.000001 -0.000000 0.252789 -11.739860 -12.807364 -52.262569 -16.400751 -40.617489 -0.000046 -60.459052 -0.000024 -132.811895 -1.601575 24.364485 4.703196 9.563373 3.109662 19.473197 -1.474929 7.636924 0.000001 -0.000001 0.000001 -0.212818 3.933713 -36.747125 2.942211 5.078974 -60.145403 -0.000006 -0.000000 -0.000004 0.405909 5.507039 -52.453148 3.387157 5.308624 -65.057463 -0.000001 -0.000001 0.000002 -0.074366 5.736779 -61.061427 4.055029 5.569494 -72.094901 -0.000001 0.000002 -0.000000 -6.565567 4.545180 -72.425434 3.299611 5.267215 -64.107657 -0.000001 0.000000 -0.000000 0.000001 0.000001 0.000002 0.505177 5.257288 11.859101 -34.604153 63.980602 57.403416 0.002713 97.079774 -0.002672 -51.294372 -27.738436 -28.918778 8.377125 -4.904143 11.022014 21.620226 -18.183866 -18.379202 0.000003 0.000000 0.000001 -0.920031 1.683581 12.434985 0.748114 -2.533467 32.898293 0.000000 0.000001 0.000002 3.413050 -7.186263 51.650246 6.296813 -4.359585 110.634660 0.000002 0.000000 -0.000000 -3.349043 -2.600424 57.010575 5.440858 -4.590902 99.698154 0.000000 0.000000 -0.000001 -3.996458 -3.303942 64.593871 4.058862 -4.618675 82.610503 -0.000000 -0.000001 -0.000000 0.000002 0.000002 -0.000001 0.000001 0.000003 -0.000001 0.000001 0.000003 -0.000001 0.000001 0.000003 -0.000001 0.000001 0.000003 -0.000001 0.000001 0.000003 -0.000001 0.000001 0.000002 0.000000 0.000001 0.000003 -0.000001 0.000001 0.000003 -0.000001 0.000001 0.000002 0.000000 0.000000 -0.000001 0.000000 0.000000 -0.000001 0.000000 -0.000000 0.000002 0.000000 
-0.277704 75.878769 2.517986 -11.754506 -32.750638 -3.294553 0.000001 -0.000001 -0.000000 -35.195316 26.976367 18.255545 69.447861 -9.921777 0.957083 13.296558 0.363612 16.478494 -0.000002 0.000001 -0.000000 -0.000002 0.000001 -0.000000 0.000000 0.000001 -0.000000 -22.016287 -2.144072 5.385625 49.517949 -4.402195 -10.372149 -17.732498 -0.317758 1.658610 0.000000 0.000001 0.000000 0.000000 0.000001 0.000000 -0.000001 -0.000002 0.000001 13.583761 -5.082465 6.037865 2.085600 -3.763825 1.205914 2.081582 -3.802128 1.310634 12.905571 14.851939 -8.241244 16.881502 11.954306 3.832063 -0.000001 0.000001 -0.000000 -0.000001 0.000001 -0.000000 -0.000001 0.000001 -0.000000 0.282898 -11.330807 -12.549338 -52.131948 -11.832410 -36.648374 0.000031 -63.788687 0.000018 -132.109642 -2.658943 25.455649 2.654374 3.472060 2.899952 19.473197 -1.474936 7.636930 -0.000003 0.000002 -0.000000 0.479530 4.971563 -39.623170 2.799893 4.994887 -58.524531 0.000003 0.000000 -0.000002 1.233379 6.166223 -53.260483 3.273604 5.254537 -63.823979 0.000001 -0.000000 -0.000002 -0.007124 5.830643 -61.864199 4.162153 5.602827 -73.195312 -0.000003 0.000000 -0.000004 -4.611468 5.130947 -72.193877 3.238153 5.237060 -63.436352 0.000000 -0.000004 0.000003 -0.000002 0.000001 0.000004 0.794579 4.206039 11.751340 -45.617307 67.386421 69.036253 -0.015078 91.206398 0.015075 -49.154583 -24.960436 -22.293434 8.377127 -4.904145 11.022014 21.620228 -18.183869 -18.379202 0.000001 -0.000001 0.000000 -1.796479 -0.810229 33.044271 3.362429 -4.473939 73.841571 -0.000001 0.000001 0.000002 0.967649 -5.350094 55.029564 6.296815 -4.359586 110.634660 0.000001 0.000000 0.000002 -5.109452 -2.053693 60.432455 5.440857 -4.590906 99.698154 0.000001 -0.000000 0.000002 -6.672693 -2.263533 65.827157 3.636824 -4.544266 77.330500 -0.000002 -0.000001 -0.000002 -0.000001 -0.000001 -0.000003 0.000000 -0.000002 -0.000000 0.000000 -0.000002 -0.000000 0.000000 -0.000002 -0.000000 0.000000 -0.000002 -0.000000 0.000000 -0.000002 0.000000 0.000000 -0.000002 0.000000 0.000000 -0.000002 -0.000000 0.000000 -0.000002 0.000000 0.000000 -0.000002 0.000000 0.000000 -0.000000 0.000001 0.000000 -0.000000 0.000001 0.000001 -0.000001 -0.000000 
-0.486954 76.860596 5.162202 -11.910579 -33.178774 -3.009829 0.000000 -0.000002 -0.000000 -36.635472 25.801374 19.294145 59.444489 -9.931510 -0.564438 11.407885 -2.029187 16.115766 0.000003 -0.000000 0.000001 0.000003 -0.000000 0.000001 0.000001 -0.000001 -0.000000 -18.539001 -2.070129 3.513428 47.197205 -3.287654 -10.307450 -18.401824 -0.427447 2.365641 -0.000000 0.000001 0.000000 -0.000000 0.000001 0.000000 0.000004 -0.000000 0.000001 13.453082 -5.612306 5.571609 2.132954 -4.757924 1.454228 2.117798 -4.655765 1.552327 10.832276 15.979388 -8.466503 16.192292 13.251507 3.655187 -0.000001 0.000000 0.000002 -0.000001 0.000000 0.000002 -0.000001 0.000000 0.000002 0.317967 -10.811098 -12.228811 -50.120017 -5.792975 -34.268565 -0.000021 -75.736430 -0.000029 -129.672193 -7.174077 29.958425 1.136354 -0.700946 2.634993 19.473199 -1.474934 7.636928 -0.000002 -0.000001 0.000001 1.014338 5.653749 -41.626089 2.702726 4.934313 -57.401764 -0.000003 -0.000000 -0.000002 1.817890 6.609549 -53.826081 3.195624 5.215665 -62.969420 0.000001 -0.000001 0.000002 0.040702 5.895133 -62.420539 4.236751 5.624701 -73.957855 -0.000002 -0.000001 0.000003 -3.258999 5.545254 -72.045996 3.195790 5.215765 -62.971318 -0.000002 -0.000001 -0.000002 0.000001 0.000001 0.000000 1.360806 2.217811 11.548060 -46.236416 68.435060 71.076957 0.000850 94.177223 -0.000850 -48.479884 -23.291649 -19.344965 8.377127 -4.904143 11.022011 21.620228 -18.183869 -18.379204 0.000000 -0.000000 0.000000 -1.934343 -0.474580 32.312437 3.253482 -4.441029 72.439730 -0.000002 -0.000000 0.000002 -1.837821 -3.750772 58.651292 6.296814 -4.359585 110.634667 -0.000000 0.000001 0.000002 -7.061112 -1.705845 64.036418 5.440857 -4.590907 99.698154 -0.000002 -0.000000 0.000002 -9.545726 -1.286166 67.165765 3.200810 -4.424095 71.758268 -0.000001 -0.000002 0.000002 0.000001 0.000001 -0.000003 -0.000000 -0.000001 0.000000 -0.000000 -0.000001 0.000000 -0.000000 -0.000001 0.000000 -0.000000 -0.000001 0.000000 -0.000000 -0.000001 0.000000 0.000001 -0.000001 0.000000 -0.000000 -0.000001 0.000000 -0.000000 -0.000001 0.000000 0.000001 -0.000001 0.000000 0.000001 0.000001 -0.000000 0.000001 0.000001 -0.000000 0.000000 -0.000002 -0.000000 
-0.696350 77.806702 7.635413 -11.923539 -33.511483 -2.763414 -0.000001 0.000003 0.000000 -35.734710 25.839449 18.672914 46.576918 -9.673392 -0.448889 10.220853 -2.993760 14.216287 0.000000 0.000000 -0.000000 0.000000 0.000000 0.000000 0.000000 0.000001 0.000000 -15.218865 -2.128522 1.813904 44.420829 -2.362678 -10.195288 -18.478032 -0.479636 3.144339 0.000000 -0.000003 0.000000 0.000000 -0.000003 0.000000 0.000000 -0.000003 0.000002 13.297067 -5.572796 5.047787 2.105616 -4.560589 1.369580 2.095472 -4.573484 1.494884 9.159450 15.888359 -7.290442 14.688557 13.044481 3.795655 0.000000 0.000000 -0.000000 0.000000 0.000000 -0.000000 0.000000 0.000000 -0.000000 0.319968 -10.669931 -12.233482 -49.238397 -5.248963 -34.231580 0.000237 -77.968897 0.000227 -129.864449 -8.326544 29.720141 0.893327 -1.342430 2.584447 19.473195 -1.474929 7.636926 -0.000003 -0.000001 -0.000001 1.100967 5.756371 -41.936573 2.687799 4.924786 -57.228157 0.000000 0.000000 -0.000002 1.909096 6.677118 -53.913986 3.183625 5.209556 -62.837303 0.000004 0.000001 -0.000003 0.048184 5.905069 -62.506592 4.248303 5.628008 -74.075758 -0.000002 -0.000001 0.000001 -3.049943 5.609939 -72.024065 3.189257 5.212434 -62.899424 -0.000000 0.000000 0.000002 -0.000001 -0.000004 0.000004 1.493774 1.654500 11.381572 -44.550578 68.210640 69.991708 -0.000035 95.635434 0.000000 -47.222658 -23.281209 -18.858110 8.377126 -4.904144 11.022015 21.620230 -18.183866 -18.379202 -0.000002 -0.000000 -0.000001 -1.870847 -0.254616 30.417858 3.008486 -4.356185 69.246220 -0.000000 0.000000 0.000000 -4.034167 -2.808647 61.345255 6.296815 -4.359586 110.634660 -0.000001 0.000001 -0.000002 -8.547125 -1.604891 66.678779 5.440859 -4.590903 99.698161 -0.000001 -0.000000 0.000002 -11.691613 -0.647300 68.171203 2.888306 -4.308876 67.655749 -0.000001 -0.000002 0.000002 -0.000000 -0.000000 -0.000001 0.000001 0.000001 -0.000001 0.000001 0.000001 -0.000001 0.000001 0.000001 -0.000001 0.000001 0.000001 -0.000001 0.000001 0.000001 -0.000001 0.000001 -0.000000 -0.000000 0.000001 0.000001 -0.000001 0.000001 0.000001 -0.000001 0.000001 -0.000000 -0.000000 0.000001 0.000001 0.000001 0.000001 0.000001 0.000001 -0.000001 0.000003 0.000000 
